<?xml version="1.0" encoding="UTF-8"?>
<svg id="Camada_2" data-name="Camada 2" xmlns="http://www.w3.org/2000/svg" viewBox="0 0 59.56 59.56">
  <defs>
    <style>
      .cls-1 {
        fill: #fff;
      }

      .cls-2 {
        fill: #b21917;
      }

      .cls-3 {
        fill: #010101;
      }
    </style>
  </defs>
  <g id="Camada_1-2" data-name="Camada 1">
    <g>
      <circle class="cls-3" cx="29.78" cy="29.78" r="29.78"/>
      <g>
        <path class="cls-1" d="M42.83,30.78h.01s0-9.01,0-9.01c0-.49-.5-.81-.94-.62l-12.29,5.38c-.25.11-.4.35-.4.62v5.45c0,.48.48.8.93.62l5.56-2.24c.44-.18.93.15.93.63-.02,3.75.15,11.77-6.46,11.58-4.5.03-5.67-2.52-6.66-6.19-.11-.4-.55-.61-.92-.44l-2.01.89h0l-3.44,1.53c-.29.13-.45.44-.39.75.2,1,.51,1.95.9,2.84h0c2.2,4.91,7.22,7.93,12.74,7.91,11.4-.31,12.62-10.98,12.46-19.72Z"/>
        <path class="cls-1" d="M42.45,17.63l-12.32,5.25c-.44.19-.94-.14-.94-.62v-3.16c0-.23.12-.44.31-.56l12.3-8c.45-.29,1.04.03,1.04.56l.02,5.91c0,.27-.16.52-.41.62Z"/>
      </g>
      <path class="cls-2" d="M16.97,21.12l1.51,2.03c.1.13.26.2.42.16l2.48-.49c.34-.07.61.27.47.59l-1,2.32c-.07.15-.04.33.07.45l1.66,1.9c.23.26.07.66-.27.7l-2.51.29c-.16.02-.3.13-.35.29l-.81,2.39c-.11.33-.54.39-.75.12l-1.51-2.03c-.1-.13-.26-.2-.42-.16l-2.48.49c-.34.07-.61-.27-.47-.59l1-2.32c.07-.15.04-.33-.07-.45l-1.66-1.9c-.23-.26-.07-.66.27-.7l2.51-.29c.16-.02.3-.13.35-.29l.81-2.39c.11-.33.54-.39.75-.12Z"/>
    </g>
  </g>
</svg>
