<?xml version="1.0" encoding="UTF-8"?>
<svg id="Camada_2" data-name="Camada 2" xmlns="http://www.w3.org/2000/svg" viewBox="0 0 180.58 180.58">
  <defs>
    <style>
      .cls-1 { fill: #1d1d1b; }
      .cls-2 { fill: #fff; }
      .cls-3 { fill: #b21917; }
      .cls-4 { fill: #010101; }
    </style>
  </defs>
  <g id="Camada_1-2" data-name="Camada 1">
    <g>
      <g>
        <circle class="cls-2" cx="90.29" cy="90.29" r="88.58"/>
        <path d="M90.29,180.58C40.5,180.58,0,140.08,0,90.29S40.5,0,90.29,0s90.29,40.5,90.29,90.29-40.5,90.29-90.29,90.29ZM90.29,3.43C42.39,3.43,3.43,42.39,3.43,90.29s38.97,86.86,86.86,86.86,86.86-38.97,86.86-86.86S138.19,3.43,90.29,3.43Z"/>
      </g>
      <g>
        <circle class="cls-4" cx="90.29" cy="89.85" r="57.65"/>
        <g>
          <path class="cls-2" d="M115.55,91.78l.02.03v-17.46c0-.94-.97-1.57-1.83-1.19l-23.8,10.42c-.47.21-.78.68-.78,1.19v10.56c0,.92.94,1.55,1.79,1.21l10.76-4.34c.86-.35,1.8.29,1.79,1.22-.04,7.27.28,22.78-12.52,22.43-8.71.06-10.97-4.87-12.9-11.98-.21-.77-1.06-1.17-1.79-.85l-3.89,1.73h0l-6.67,2.96c-.56.25-.87.85-.75,1.45.39,1.94.98,3.78,1.75,5.5h0c4.26,9.5,13.97,15.35,24.66,15.32,22.06-.6,24.44-21.25,24.13-38.18Z"/>
          <path class="cls-2" d="M114.83,66.33l-23.84,10.16c-.86.37-1.82-.26-1.82-1.2v-6.11c0-.44.22-.85.59-1.09l23.81-15.49c.87-.56,2.01.06,2.02,1.09l.04,11.44c0,.52-.31,1-.79,1.2Z"/>
        </g>
        <path class="cls-3" d="M65.5,73.08l2.92,3.92c.19.26.51.38.82.32l4.79-.95c.65-.13,1.18.53.92,1.14l-1.94,4.49c-.13.29-.07.63.14.87l3.22,3.68c.44.5.14,1.29-.53,1.36l-4.85.57c-.32.04-.58.25-.69.55l-1.57,4.63c-.21.63-1.05.76-1.44.23l-2.92-3.92c-.19-.26-.51-.38-.82-.32l-4.79.95c-.65.13-1.18-.53-.92-1.14l1.94-4.49c.13-.29.07-.63-.14-.87l-3.22-3.68c-.44-.5-.14-1.29.53-1.36l4.85-.57c.32-.04.58-.25.69-.55l1.57-4.63c.21-.63,1.05-.76,1.44-.23Z"/>
      </g>
      <g>
        <path class="cls-1" d="M28.27,58.55c.28.63.24,1.32-.12,2.04-.15.29-.35.59-.62.88-.26.29-.48.5-.65.62l-.72-.67c.13-.09.3-.24.5-.47.2-.23.35-.45.47-.66.24-.47.25-.91.04-1.32s-.63-.78-1.26-1.09l-6.48-3.26.5-1,6.54,3.3c.91.46,1.51,1.01,1.79,1.64Z"/>
        <path class="cls-1" d="M28.56,46.66c.56-.25,1.15-.34,1.77-.27.62.07,1.22.29,1.78.68.56.38.99.85,1.28,1.41s.42,1.14.4,1.75c-.03.61-.23,1.18-.59,1.72-.36.53-.82.92-1.38,1.17-.56.25-1.15.33-1.77.26s-1.21-.3-1.78-.68c-.56-.38-.99-.85-1.28-1.4-.29-.56-.43-1.14-.4-1.74.03-.61.22-1.18.58-1.71.37-.54.83-.93,1.39-1.18ZM27.54,49.52c0,.42.13.83.36,1.23.23.4.56.74.98,1.02.42.29.86.47,1.32.54.46.07.89.04,1.28-.12.39-.15.71-.41.96-.78.25-.37.38-.77.39-1.2,0-.43-.12-.84-.35-1.24-.24-.4-.57-.75-.98-1.03s-.86-.46-1.31-.53c-.46-.07-.89-.03-1.29.13-.4.16-.73.42-.98.79-.25.37-.37.77-.37,1.19Z"/>
        <path class="cls-1" d="M37.38,44.75c.39-.2.73-.46,1.01-.78.32-.35.5-.72.55-1.1.05-.38-.08-.7-.38-.96-.22-.2-.46-.28-.7-.24-.25.04-.54.17-.88.39-.12.09-.23.17-.32.23-.1.06-.21.14-.34.23-.56.39-1.07.63-1.53.72-.46.09-.92-.06-1.36-.47-.48-.43-.69-.93-.63-1.5.06-.57.32-1.12.79-1.64.3-.33.63-.6,1-.79.37-.2.71-.32,1.03-.38l.35.71c-.3.06-.62.18-.95.36-.33.17-.61.4-.85.66-.26.29-.42.6-.48.93-.06.33.05.62.31.86.22.2.47.27.74.21.27-.06.58-.21.94-.45.09-.05.24-.15.45-.3.38-.29.72-.5,1.01-.65.3-.14.62-.2.95-.18.34.03.67.18,1.01.49.53.48.78,1.03.72,1.66-.06.63-.34,1.23-.87,1.82-.35.39-.73.69-1.15.9s-.81.34-1.18.39l-.37-.72c.36-.07.75-.21,1.13-.41Z"/>
        <path class="cls-1" d="M40.22,32.16h-.66s-.4-3.06-.4-3.06l.79-.02.28,3.08ZM43.49,32.92c-.34-.18-.7-.25-1.06-.22-.36.04-.69.19-.99.44-.32.27-.53.6-.63.98s-.09.78.03,1.21c.13.43.36.84.71,1.25.36.42.75.74,1.18.96.42.22.86.31,1.3.27.44-.04.85-.21,1.22-.53.3-.25.55-.57.75-.96.21-.39.32-.78.36-1.2l.71.27c0,.46-.13.93-.38,1.4s-.6.89-1.03,1.27c-.48.41-1.01.65-1.59.73-.58.08-1.15,0-1.72-.24-.57-.25-1.07-.63-1.51-1.15-.45-.53-.76-1.09-.92-1.68-.16-.59-.15-1.16.03-1.73.18-.57.52-1.07,1.03-1.5.47-.4.98-.62,1.54-.67.56-.05,1.12.07,1.66.37.55.3,1.02.77,1.41,1.42l-3.94,3.37-.49-.46,3.27-2.79c-.27-.36-.58-.63-.92-.81Z"/>
        <path class="cls-1" d="M57.35,29.22c-.84-.07-1.62-.37-2.35-.9-.73-.53-1.33-1.25-1.79-2.16-.47-.92-.69-1.84-.69-2.76,0-.92.23-1.75.68-2.5.45-.75,1.07-1.33,1.88-1.73,1.15-.59,2.31-.72,3.49-.4l.06.98c-.52-.13-1.01-.18-1.5-.15s-.99.18-1.52.45c-.6.3-1.07.75-1.41,1.34-.34.59-.52,1.25-.52,2s.19,1.47.55,2.2c.37.74.85,1.31,1.44,1.74.59.43,1.21.67,1.86.74.66.07,1.28-.05,1.87-.34.46-.23.85-.53,1.16-.9.31-.36.55-.76.72-1.18l-1.29-2.53-2.47,1.25-.46-.89,3.46-1.75,2.02,3.98c-.23.61-.58,1.18-1.04,1.71-.46.53-1.04.97-1.73,1.32-.77.39-1.58.55-2.41.48Z"/>
        <path class="cls-1" d="M69.39,17.63c.59.15,1.12.44,1.57.87s.78.98.99,1.63c.21.65.25,1.28.14,1.9-.11.62-.37,1.16-.77,1.62-.4.46-.91.8-1.53.99-.61.2-1.21.22-1.81.08-.59-.15-1.11-.44-1.56-.88s-.78-.98-.98-1.63c-.21-.65-.26-1.28-.15-1.9.11-.62.36-1.16.76-1.62.4-.46.9-.8,1.51-.99.62-.2,1.23-.23,1.82-.08ZM66.83,19.27c-.26.33-.41.73-.47,1.19-.07.46-.02.93.14,1.41.15.48.39.89.71,1.23.32.34.68.57,1.08.69.4.12.81.11,1.24-.02.43-.14.77-.38,1.04-.71s.43-.73.49-1.2c.06-.46.01-.94-.14-1.42-.15-.48-.39-.89-.71-1.23-.32-.33-.68-.57-1.09-.69-.41-.12-.83-.12-1.26.02-.43.14-.77.38-1.02.71Z"/>
        <path class="cls-1" d="M80.63,21.74c-.36.29-.79.48-1.28.56-.79.13-1.44,0-1.98-.4-.53-.39-.88-1.07-1.04-2.04l-.69-4.18,1.03-.17.67,4.05c.11.66.34,1.15.71,1.46.36.31.84.41,1.45.31.34-.06.66-.21.96-.48.29-.26.56-.59.79-1l-.83-4.97,1.05-.17.86,5.2.46,1.67-.78.18-.45-1.08c-.25.42-.57.77-.93,1.06Z"/>
        <path class="cls-1" d="M88.12,21.2l-1.05.05-.56-10.73,1.05-.06.56,10.73Z"/>
        <path class="cls-1" d="M93.49,14.42c.23-.1.5-.19.8-.25.3-.06.64-.09,1-.07.82.04,1.44.33,1.88.86.44.53.63,1.34.57,2.42l-.13,2.46c.03.51.06,1.02.08,1.54h-.92s-.14-.99-.14-.99c-.27.3-.61.54-1.03.72-.42.18-.87.26-1.36.23-.4-.02-.77-.12-1.12-.28-.35-.16-.62-.4-.83-.7s-.29-.66-.27-1.08c.04-.8.48-1.35,1.31-1.67.83-.32,1.94-.44,3.34-.36.04-.82-.08-1.41-.38-1.75-.3-.35-.7-.54-1.2-.56-.35-.02-.68.03-.99.14s-.59.25-.85.41l-.31-.75c.13-.1.31-.2.54-.31ZM94.12,18.13c-.63.2-.96.57-.99,1.11-.02.4.11.71.4.93.29.22.63.34,1.02.36.4.02.78-.06,1.14-.24.36-.18.65-.41.87-.69l.09-1.7c-1.06-.05-1.9.03-2.53.23Z"/>
        <path class="cls-1" d="M103.83,16.95l-.94,5.15-1.05-.19.91-5,.17-1.91.91.12v1.83ZM104.78,15.76c.52-.28.99-.39,1.43-.31.42.08.77.24,1.03.48.27.24.46.52.58.84l-.75.68c-.09-.24-.23-.46-.44-.66-.21-.2-.47-.32-.8-.38-.37-.07-.79.03-1.25.28-.46.26-.89.59-1.3,1v-.8c.47-.47.96-.85,1.48-1.13Z"/>
        <path class="cls-1" d="M112.01,22.97c.11.36.35.59.74.71.37.11.91.04,1.62-.21l.04.76c-.35.15-.72.26-1.1.32-.38.05-.75.03-1.09-.08-.62-.19-1.04-.54-1.24-1.06-.2-.52-.19-1.15.03-1.89l1.2-3.94-.03-.21,1.25-2.56.67.2-2.03,6.67c-.15.5-.18.93-.07,1.29ZM115.53,18.96l-4.38-1.33.26-.85,4.38,1.33-.26.85Z"/>
        <path class="cls-1" d="M125.35,29.17c-.64.27-1.32.22-2.04-.16-.29-.15-.58-.36-.87-.63-.29-.27-.49-.49-.61-.66l.68-.71c.09.13.24.3.46.51.22.2.44.36.65.47.47.25.9.27,1.32.07.41-.2.78-.61,1.12-1.24l3.38-6.42.99.52-3.41,6.49c-.48.9-1.03,1.49-1.67,1.76Z"/>
        <path class="cls-1" d="M132.84,34.47c-.46-.05-.9-.22-1.3-.5-.65-.46-1.03-1.01-1.13-1.67-.1-.65.13-1.38.7-2.18l2.45-3.46.86.61-2.37,3.36c-.39.55-.56,1.06-.52,1.53.04.48.31.89.81,1.24.29.2.62.31,1.01.33.39.02.81-.03,1.27-.15l2.91-4.12.87.61-3.05,4.31-.85,1.5-.68-.43.44-1.08c-.48.12-.95.15-1.41.1ZM136.43,27.59l-.17-.64,2.88-1.14.21.76-2.92,1.02Z"/>
        <path class="cls-1" d="M143.92,35.12c.5.12.93.35,1.28.69.57.54.84,1.13.82,1.75-.02.62-.38,1.3-1.06,2.02l-2.93,3.07-.76-.72,2.83-2.98c.46-.48.72-.96.76-1.42.05-.46-.15-.9-.58-1.3-.26-.25-.6-.42-1.02-.51-.42-.09-.85-.12-1.29-.08l-3.48,3.65-.77-.74,3.64-3.82,1.06-1.36.69.6-.7,1.02c.5-.04.99,0,1.49.12Z"/>
        <path class="cls-1" d="M145.62,46.78l-.67-.8,5.37-4.49.67.81-5.37,4.48ZM153.09,40.51c-.02.18-.1.34-.25.46-.15.12-.31.18-.5.16-.18-.02-.34-.11-.47-.26-.13-.15-.19-.32-.18-.51.01-.18.09-.33.24-.46.15-.12.31-.18.5-.16.19.02.34.1.47.26.13.16.19.33.17.52Z"/>
        <path class="cls-1" d="M156.51,50.5c.02.61-.12,1.2-.42,1.75-.3.55-.73,1.01-1.3,1.39-.57.38-1.16.59-1.79.65-.62.06-1.22-.04-1.77-.3-.55-.25-1.01-.66-1.37-1.2-.35-.54-.54-1.11-.56-1.72-.02-.61.12-1.19.43-1.74.3-.55.73-1.01,1.3-1.39s1.16-.59,1.79-.65c.62-.06,1.21.03,1.76.29.55.26,1.01.65,1.36,1.19.36.54.55,1.12.57,1.73ZM154.24,48.47c-.39-.15-.82-.2-1.28-.13s-.9.24-1.32.51c-.42.28-.76.62-1,1.02-.24.4-.37.81-.38,1.23s.11.81.36,1.19c.25.37.57.64.96.81.4.16.82.21,1.28.15.46-.07.91-.24,1.33-.52s.75-.62.99-1.01.36-.81.37-1.24c0-.43-.11-.83-.36-1.21-.24-.37-.57-.64-.96-.79Z"/>
        <path class="cls-1" d="M158.93,57.74l-4.71,2.28-.46-.96,4.58-2.22,1.64-.99.44.81-1.49,1.07ZM160.46,57.81c.53.25.9.57,1.1.97.19.38.26.76.22,1.11-.04.36-.15.68-.33.96l-.99-.2c.15-.21.24-.46.27-.74.04-.28-.02-.57-.16-.87-.17-.34-.49-.62-.96-.84-.48-.22-1-.37-1.58-.46l.65-.46c.65.09,1.24.26,1.78.51Z"/>
      </g>
      <g>
        <path class="cls-1" d="M29.93,118.83c.46,1.15.62,2.07.48,2.77-.14.7-.58,1.2-1.31,1.5-.54.22-1.03.25-1.5.1-.46-.15-.86-.45-1.17-.89h-.03c.17.72.15,1.36-.07,1.92-.22.56-.69.99-1.41,1.28-.82.33-1.58.3-2.28-.1-.69-.4-1.3-1.25-1.83-2.54-.22-.54-.51-1.36-.89-2.48l9.03-3.65c.43.87.76,1.57.97,2.11ZM21.67,122.64c.36.89.78,1.48,1.26,1.77.48.29,1.03.32,1.63.07.64-.25,1-.66,1.1-1.21.1-.55,0-1.2-.31-1.97-.23-.58-.47-1.15-.71-1.72l-3.55,1.43c.2.63.4,1.17.58,1.62ZM26.05,120.77c.26.63.61,1.08,1.06,1.35.45.26.94.28,1.5.06.53-.22.84-.57.92-1.06.08-.49-.04-1.11-.34-1.87-.14-.36-.33-.78-.56-1.27l-3.17,1.28c.18.47.38.97.59,1.51Z"/>
        <path class="cls-1" d="M29.25,128.97l-4.24,2.5-.51-.86,4.12-2.43,1.46-1.05.47.72-1.31,1.13ZM30.69,128.92c.52.19.89.47,1.1.83.2.35.3.69.3,1.03,0,.34-.09.65-.24.93l-.94-.11c.12-.21.19-.45.2-.71.01-.27-.06-.53-.22-.8-.18-.31-.51-.55-.97-.71-.47-.17-.97-.27-1.51-.31l.58-.48c.62.04,1.19.15,1.71.34Z"/>
        <path class="cls-1" d="M34.25,134.36c.21.1.44.25.67.43.23.18.45.41.65.68.46.62.62,1.25.5,1.88-.12.63-.6,1.26-1.42,1.87l-1.87,1.37c-.35.33-.71.65-1.07.97l-.56-.66.64-.7c-.38-.02-.76-.12-1.14-.32-.38-.19-.71-.48-.98-.85-.22-.3-.38-.63-.47-.98-.09-.35-.08-.69.02-1.02.1-.33.31-.61.62-.84.6-.44,1.27-.46,1.99-.05.73.42,1.48,1.15,2.26,2.21.63-.46.97-.9,1.05-1.33.08-.42-.03-.83-.31-1.21-.19-.26-.42-.48-.69-.63-.26-.16-.53-.28-.81-.38l.36-.67c.15.04.33.11.55.21ZM31.92,137.03c-.52-.34-.99-.35-1.4-.05-.3.22-.45.5-.44.84,0,.34.13.66.35.96.22.3.51.53.85.68.35.15.69.23,1.02.22l1.29-.95c-.6-.8-1.16-1.37-1.68-1.7Z"/>
        <path class="cls-1" d="M40.73,142.23c.47.13.86.36,1.18.69.52.53.75,1.09.71,1.68-.04.59-.4,1.21-1.07,1.87l-2.86,2.78-.69-.71,2.78-2.69c.45-.44.71-.87.77-1.31.06-.43-.11-.85-.5-1.25-.23-.24-.55-.42-.94-.52-.39-.1-.8-.14-1.21-.13l-3.41,3.3-.7-.72,3.56-3.46,1.05-1.25.63.59-.69.94c.47-.02.93.04,1.4.17Z"/>
        <path class="cls-1" d="M47.78,154.67l-.86,1.38-.62-.43.46-1.1.44.03c-.21.12-.47.2-.8.24-.33.04-.68.01-1.06-.08-.37-.09-.71-.25-1-.48-.41-.31-.71-.7-.91-1.17-.2-.47-.25-.99-.16-1.57.09-.58.38-1.18.85-1.79.48-.62,1-1.03,1.57-1.24.57-.21,1.12-.25,1.65-.13.53.12,1.01.34,1.43.66.25.2.48.41.67.65s.34.46.46.65l2.28-2.95.78.6-5.19,6.72ZM49,150.33c-.18-.25-.39-.46-.61-.63-.33-.25-.69-.41-1.08-.47-.4-.06-.8-.01-1.2.16-.41.17-.78.47-1.11.9-.36.46-.58.91-.67,1.34-.09.43-.07.81.06,1.15s.32.61.6.83c.29.23.63.36,1.01.4.38.04.75.02,1.11-.08l2.3-2.98c-.09-.16-.22-.36-.4-.61Z"/>
        <path class="cls-1" d="M51.69,159.1l-.84-.51,3.43-5.62.84.51-3.43,5.62ZM56.45,151.25c.04.17.01.33-.08.49-.1.16-.23.25-.4.29-.17.04-.33,0-.5-.09-.16-.1-.27-.23-.31-.4s-.02-.33.08-.48c.1-.16.23-.25.4-.3.17-.04.33-.01.5.09s.27.24.31.41Z"/>
        <path class="cls-1" d="M60.38,156.59c.49-.04.93.04,1.35.23.67.31,1.09.75,1.26,1.32.17.56.05,1.27-.35,2.12l-1.7,3.61-.89-.42,1.65-3.5c.27-.57.35-1.07.26-1.49-.1-.43-.4-.76-.9-.99-.31-.14-.66-.2-1.07-.15-.4.04-.8.15-1.18.31l-2.02,4.29-.91-.42,2.11-4.5.54-1.53.8.33-.32,1.12c.43-.18.89-.29,1.37-.33Z"/>
        <path class="cls-1" d="M66.97,163.82c-.24.11-.38.26-.45.46-.06.2-.03.41.11.62.13.21.37.36.72.47l2.15.67c.64.2,1.08.52,1.32.96.24.44.28.92.12,1.44-.14.45-.39.81-.75,1.08-.36.28-.82.44-1.39.5s-1.21-.02-1.93-.25c-.99-.31-1.69-.73-2.08-1.25-.39-.53-.5-1.07-.33-1.63.13-.42.37-.76.72-1.03.35-.27.74-.45,1.16-.55l.47.49c-.33.07-.63.2-.91.4-.27.2-.46.45-.56.77-.14.44-.04.85.28,1.22.33.37.83.66,1.51.87.5.15.94.22,1.33.19.39-.03.71-.13.96-.3.25-.17.42-.4.51-.69.1-.33.07-.64-.09-.93-.16-.28-.46-.5-.89-.63l-2.04-.63c-.37-.11-.65-.27-.86-.47-.21-.2-.34-.42-.39-.66-.06-.24-.05-.46.02-.67.1-.31.31-.55.65-.72.33-.17.7-.26,1.12-.29l.33.36c-.3.02-.57.09-.81.19ZM71.34,160.71c.34.3.57.66.69,1.06.12.4.12.82-.01,1.25-.13.43-.37.78-.7,1.04-.33.26-.72.43-1.18.5-.46.07-.94.03-1.44-.13-.49-.15-.9-.39-1.24-.69-.34-.31-.57-.67-.69-1.07-.13-.4-.12-.82.01-1.25.13-.43.37-.77.7-1.04.33-.26.73-.43,1.19-.5.46-.06.93-.02,1.43.14.5.15.92.39,1.25.69ZM69.86,163.87c.31-.06.58-.18.81-.37.23-.19.39-.44.48-.73.09-.3.1-.59.02-.88s-.23-.55-.45-.77c-.22-.22-.5-.39-.83-.49-.32-.1-.64-.12-.95-.07-.31.06-.59.18-.81.38-.23.2-.39.44-.48.74-.09.3-.1.59-.02.88.08.29.23.54.45.77s.5.39.83.49c.33.1.65.13.96.07ZM72.25,160.17c.43-.16.86-.21,1.3-.13l-.15.8c-.35-.06-.71-.05-1.08.05s-.68.24-.94.43l-.25-.45c.31-.3.68-.54,1.11-.7Z"/>
        <path class="cls-1" d="M88.77,166.18c-.46,1.02-1.11,1.87-1.96,2.56-.84.69-1.82,1-2.95.93-.61-.04-1.14-.19-1.59-.46-.45-.26-.78-.61-1-1.04-.22-.43-.32-.91-.28-1.45.04-.59.23-1.09.57-1.5.34-.4.73-.72,1.17-.95.44-.23,1.02-.48,1.73-.75.49-.2.88-.37,1.16-.52.28-.15.51-.32.67-.52.17-.19.26-.43.28-.69.02-.36-.1-.66-.36-.89s-.58-.35-.94-.38c-.27-.02-.54.03-.79.13s-.46.26-.63.46c-.17.2-.26.44-.28.7-.02.28.05.59.2.93.15.34.4.71.75,1.11l2.97,3.5c.35.41.7.74,1.05.99.35.25.73.43,1.14.53.13.04.25.06.38.08l-.27.96c-.47-.03-.99-.21-1.55-.53-.56-.33-1.07-.77-1.53-1.32l-3.09-3.72c-.37-.45-.65-.89-.83-1.32-.18-.43-.26-.84-.23-1.21.03-.44.18-.82.45-1.15.27-.33.61-.57,1.03-.74.42-.17.85-.23,1.3-.2.4.03.77.13,1.12.29.34.17.61.41.82.72.2.31.29.68.26,1.1-.03.43-.17.8-.42,1.1-.25.3-.56.55-.92.73-.36.19-.82.39-1.37.6-.53.2-.97.4-1.34.6-.36.2-.69.44-.96.75s-.42.67-.45,1.1c-.02.35.04.67.18.98s.36.56.67.76c.31.2.68.31,1.12.34.89.06,1.68-.22,2.35-.83.67-.61,1.2-1.36,1.58-2.25.38-.89.59-1.71.64-2.46l.94.06c-.06.89-.32,1.84-.78,2.86Z"/>
        <path class="cls-1" d="M104.55,165.14l.38.61h.03s.08-.71.08-.71l1.33-6.98,1.25-.26,2.74,9.37-1.05.22-2.04-6.91-.22-.89h-.03s-1.41,7.6-1.41,7.6l-.8.17-4.45-6.37h-.03s.16.91.16.91l.98,7.14-.98.21-1.34-9.67,1.3-.27,4.1,5.84Z"/>
        <path class="cls-1" d="M113.32,159.41c.16-.18.35-.35.59-.53s.51-.33.83-.45c.71-.28,1.36-.28,1.95,0,.58.28,1.06.9,1.44,1.85l.85,2.16c.23.42.45.85.67,1.29l-.79.36-.51-.8c-.11.36-.31.7-.6,1.02-.29.32-.64.56-1.07.73-.35.14-.7.2-1.06.2s-.69-.1-.98-.28c-.29-.18-.51-.45-.65-.82-.27-.7-.12-1.35.47-1.94.59-.59,1.49-1.13,2.72-1.61-.28-.72-.62-1.18-1.01-1.36-.39-.18-.81-.18-1.25-.01-.3.12-.57.29-.79.5-.22.21-.41.44-.57.68l-.56-.52c.07-.14.19-.3.34-.48ZM115.3,162.35c-.46.42-.6.86-.41,1.34.14.35.37.56.7.64.33.08.67.05,1.02-.09.35-.14.64-.35.88-.65.24-.29.4-.6.47-.93l-.59-1.49c-.92.37-1.62.77-2.08,1.19Z"/>
        <path class="cls-1" d="M122.45,156.88l2.34,4.33-.88.48-2.28-4.21-1-1.5.74-.45,1.07,1.35ZM122.45,155.44c.21-.51.5-.87.87-1.07.35-.19.7-.28,1.04-.26.34.02.64.11.92.27l-.15.94c-.21-.13-.44-.2-.71-.23-.27-.02-.54.04-.81.19-.31.17-.56.48-.75.94-.18.46-.3.96-.36,1.5l-.46-.59c.06-.62.2-1.18.41-1.7Z"/>
        <path class="cls-1" d="M130.45,154.44h.01s.72-5.03.72-5.03l.97-.69-.58,3.91,4.79,1.17-1.06.75-3.88-.93-.28,1.78.99,1.4-.8.57-5.86-8.23.8-.57,4.18,5.86Z"/>
        <path class="cls-1" d="M138.85,145.04c-.33-.16-.67-.21-1-.16-.33.05-.64.2-.91.46-.29.27-.47.59-.55.95-.08.36-.06.74.08,1.13s.37.77.71,1.14c.35.38.74.67,1.15.86.41.19.82.26,1.23.21.41-.05.79-.24,1.12-.55.27-.25.49-.56.67-.93.18-.37.27-.75.29-1.14l.68.23c.02.43-.08.88-.3,1.33-.22.45-.53.86-.92,1.23-.44.41-.92.66-1.46.75-.54.1-1.08.04-1.62-.17s-1.03-.54-1.47-1.01c-.45-.48-.76-1-.93-1.54s-.19-1.09-.04-1.63c.14-.54.44-1.02.91-1.45.42-.39.9-.62,1.42-.69.53-.07,1.05.02,1.58.28.53.26.99.69,1.39,1.28l-3.58,3.33-.48-.42,2.96-2.76c-.26-.32-.56-.57-.9-.73Z"/>
        <path class="cls-1" d="M146.1,142.64c.35.04.65-.09.89-.38.24-.28.38-.77.42-1.48l.67.25c0,.36-.04.72-.13,1.07s-.25.66-.47.92c-.4.47-.85.69-1.38.67-.52-.02-1.07-.26-1.62-.73l-2.97-2.51-.19-.05-1.75-2.03.42-.5,5.01,4.23c.38.32.74.5,1.09.54ZM143.94,138.11l-2.78,3.29-.64-.54,2.78-3.29.64.54Z"/>
        <path class="cls-1" d="M143.9,132.35c.17-.03.33,0,.48.11.15.1.24.24.26.41.03.17-.02.33-.13.49-.11.16-.25.25-.42.29-.17.03-.33,0-.48-.11-.15-.11-.24-.24-.27-.42-.03-.17,0-.34.12-.49.11-.16.25-.25.42-.28ZM151.44,137.59l-.57.81-5.4-3.77.57-.81,5.4,3.77Z"/>
        <path class="cls-1" d="M149.48,128.73c-.01-.49.09-.93.31-1.33.36-.65.82-1.04,1.4-1.18.57-.14,1.27.02,2.1.48l3.5,1.91-.47.87-3.39-1.86c-.55-.3-1.05-.42-1.47-.35-.43.07-.78.35-1.05.84-.16.3-.24.65-.22,1.05.02.41.1.8.24,1.19l4.16,2.28-.48.88-4.36-2.38-1.5-.63.38-.78,1.1.38c-.16-.44-.24-.9-.25-1.39Z"/>
        <path class="cls-1" d="M154.24,118.09c.32-.32.69-.52,1.1-.62.41-.1.82-.07,1.24.09.42.16.75.41,1,.76s.39.75.43,1.21c.04.46-.03.94-.22,1.44-.18.48-.44.88-.77,1.2-.33.32-.7.53-1.11.63-.41.1-.82.07-1.24-.09-.42-.16-.75-.41-.99-.77-.24-.35-.38-.76-.42-1.22-.04-.46.04-.93.22-1.42.18-.49.44-.89.77-1.21ZM153.76,117.14c-.14-.43-.15-.87-.05-1.31l.79.2c-.08.35-.09.71-.02,1.08.07.37.19.69.38.96l-.47.22c-.28-.33-.5-.72-.63-1.15ZM157.3,119.75c-.04-.31-.15-.59-.32-.83s-.41-.41-.7-.52c-.29-.11-.58-.14-.88-.08-.29.06-.56.2-.8.4-.23.21-.42.47-.54.8-.12.32-.16.63-.13.95s.15.6.33.84.42.42.71.52c.29.11.58.14.87.08.29-.06.56-.19.79-.4s.41-.48.54-.8c.12-.33.17-.64.13-.96ZM157.07,122.64c.09.24.24.4.44.47.2.07.4.05.62-.07.22-.12.39-.35.52-.69l.8-2.1c.24-.62.58-1.04,1.03-1.26.45-.22.94-.22,1.45-.03.44.17.78.44,1.03.81.25.38.39.85.42,1.42s-.1,1.21-.36,1.91c-.37.97-.83,1.64-1.38,2-.55.36-1.1.44-1.65.23-.41-.15-.74-.42-.99-.78-.25-.37-.41-.77-.48-1.2l.52-.43c.05.33.16.64.34.93.18.29.42.49.73.61.44.17.85.1,1.24-.21.39-.31.71-.79.96-1.45.19-.49.28-.93.27-1.32,0-.4-.08-.72-.24-.98-.16-.26-.38-.44-.66-.55-.33-.12-.63-.11-.93.04-.3.15-.52.43-.68.85l-.76,2c-.14.36-.31.63-.53.83-.21.19-.44.31-.68.35-.24.04-.46.02-.67-.06-.31-.12-.53-.34-.68-.69-.14-.34-.21-.72-.22-1.13l.38-.31c0,.3.05.58.14.82Z"/>
      </g>
      <path d="M19.45,78.75l1.23,2.35c.08.15.24.25.41.24l2.65-.11c.36-.01.59.38.4.69l-1.42,2.24c-.09.15-.09.33,0,.48l1.42,2.24c.19.31-.04.7-.4.69l-2.65-.11c-.17,0-.33.09-.41.24l-1.23,2.35c-.17.32-.63.32-.79,0l-1.23-2.35c-.08-.15-.24-.25-.41-.24l-2.65.11c-.36.01-.59-.38-.4-.69l1.42-2.24c.09-.15.09-.33,0-.48l-1.42-2.24c-.19-.31.04-.7.4-.69l2.65.11c.17,0,.33-.09.41-.24l1.23-2.35c.17-.32.63-.32.79,0Z"/>
      <path d="M163.84,78.75l1.23,2.35c.08.15.24.25.41.24l2.65-.11c.36-.01.59.38.4.69l-1.42,2.24c-.09.15-.09.33,0,.48l1.42,2.24c.19.31-.04.7-.4.69l-2.65-.11c-.17,0-.33.09-.41.24l-1.23,2.35c-.17.32-.63.32-.79,0l-1.23-2.35c-.08-.15-.24-.25-.41-.24l-2.65.11c-.36.01-.59-.38-.4-.69l1.42-2.24c.09-.15.09-.33,0-.48l-1.42-2.24c-.19-.31.04-.7.4-.69l2.65.11c.17,0,.33-.09.41-.24l1.23-2.35c.17-.32.63-.32.79,0Z"/>
    </g>
  </g>
</svg>
